<svg xmlns="http://www.w3.org/2000/svg" viewBox="0 0 33.814 33.826">
  <defs>
    <style>
      .cls-1 {
        fill: #ce9840;
      }
    </style>
  </defs>
  <g id="old-handphone" transform="translate(-0.003 0)">
    <path id="Path_13" data-name="Path 13" class="cls-1" d="M10.621,11.2,2.811,3.383Q4.323,1.871,5.835.355A1.2,1.2,0,0,1,7.525.341L13.61,6.432a1.2,1.2,0,0,1-.006,1.7L12.271,9.462,11.03,10.7A3.416,3.416,0,0,0,10.621,11.2Zm6.426,12.729c-1.279-1.1-2.505-2.269-3.7-3.457S11,18.051,9.9,16.766a3.848,3.848,0,0,1-.607-3.822L1.271,4.925C-.595,6.843-.356,11.6,1.688,15.778a30.086,30.086,0,0,0,3.193,4.991A44.729,44.729,0,0,0,8.7,25.13a42.608,42.608,0,0,0,4.351,3.834,30.1,30.1,0,0,0,4.983,3.187c4.185,2.042,8.943,2.267,10.859.4l-8.019-8.019A3.864,3.864,0,0,1,17.047,23.927Zm16.425,2.367-6.085-6.087a1.212,1.212,0,0,0-1.7.006h0l-1.337,1.335-1.233,1.239a3.741,3.741,0,0,1-.5.411l7.809,7.813q1.515-1.518,3.03-3.026A1.19,1.19,0,0,0,33.472,26.294Z" transform="translate(0 0)"/>
  </g>
</svg>
