<svg xmlns="http://www.w3.org/2000/svg" viewBox="0 0 33.659 33.344">
  <defs>
    <style>
      .cls-1 {
        fill: #ce9840;
      }
    </style>
  </defs>
  <g id="user-silhouette" transform="translate(0.001 -1.916)">
    <g id="Group_10" data-name="Group 10" transform="translate(-0.001 1.916)">
      <path id="Path_7" data-name="Path 7" class="cls-1" d="M120.39,19.582c4.168,0,7.547-3.955,7.547-8.833,0-6.765-3.379-8.833-7.547-8.833s-7.547,2.068-7.547,8.833C112.843,15.628,116.222,19.582,120.39,19.582Z" transform="translate(-103.56 -1.916)"/>
      <path id="Path_8" data-name="Path 8" class="cls-1" d="M33.494,234.014l-3.807-8.577a1.911,1.911,0,0,0-.861-.916l-5.909-3.076a.381.381,0,0,0-.405.034,9.322,9.322,0,0,1-11.365,0,.381.381,0,0,0-.406-.034l-5.909,3.076a1.91,1.91,0,0,0-.861.916L.164,234.014a1.9,1.9,0,0,0,1.74,2.676h29.85a1.9,1.9,0,0,0,1.74-2.676Z" transform="translate(0.001 -203.347)"/>
    </g>
  </g>
</svg>
