<svg xmlns="http://www.w3.org/2000/svg" viewBox="0 0 21.155 33.4">
  <defs>
    <style>
      .cls-1 {
        fill: #fff;
      }
    </style>
  </defs>
  <g id="question-mark" transform="translate(-5.34)">
    <path id="Path_12" data-name="Path 12" class="cls-1" d="M15.483,0C21.032,0,26.5,2.661,26.5,9.025c0,5.869-6.459,8.126-7.847,10.246-1.041,1.577-.694,3.794-3.555,3.794a2.827,2.827,0,0,1-2.774-3.023c0-5.375,7.585-6.591,7.585-11.017,0-2.436-1.557-3.88-4.16-3.88-5.549,0-3.382,5.956-7.585,5.956A2.64,2.64,0,0,1,5.34,8.349C5.339,3.923,10.193,0,15.483,0Zm-.216,26a3.705,3.705,0,0,1,0,7.4,3.705,3.705,0,0,1,0-7.4Z"/>
  </g>
</svg>
