<svg xmlns="http://www.w3.org/2000/svg" viewBox="0 0 50 29.214">
  <defs>
    <style>
      .cls-1 {
        fill: #fff;
      }
    </style>
  </defs>
  <path id="_020-vk" data-name="020-vk" class="cls-1" d="M44.6,19.872l-.027-.025c-.427-.388-1.735-1.64-2.176-2.187a1.363,1.363,0,0,1-.01-1.8c.49-.847,1.472-2.147,2.512-3.523,3.329-4.406,5.479-7.457,5.037-9.623L49.7,1.556l-12.3.005a32.261,32.261,0,0,1-3.392,7.611c-1.963,3.425-3.251,4.5-3.7,4.69l-.07-.021a3.588,3.588,0,0,1-.512-1.912,32.351,32.351,0,0,1,.082-4.421,19.055,19.055,0,0,0-.023-4.455l-.373-1.807A25.01,25.01,0,0,0,22.705.5c-3.985-.04-5.156.526-5.731,1.026l-1.9,1.651,2.4.8c.915.3,1.218.652,1.468,2.385a21.337,21.337,0,0,1,.072,4.721c-.252,2.429-.857,2.881-.888,2.905-.1-.035-.987-.415-2.52-3.6a71.767,71.767,0,0,1-2.677-6.74c-.78-2.188-.639-1.722-1.035-2.756H0L.77,2.843C3.979,11.02,6.924,17.405,10.864,21.992a21.129,21.129,0,0,0,17.053,7.721h1.465V28.271a9.949,9.949,0,0,1,.356-3.054,7.521,7.521,0,0,1,.553-1.207c.307-.572.608-.817.772-.854a1.077,1.077,0,0,1,.7.287,12.691,12.691,0,0,1,2.193,2.263,11.5,11.5,0,0,0,3.709,3.324,9.451,9.451,0,0,0,3.476.682H50l-.063-1.5C49.843,25.967,48.048,23.161,44.6,19.872Zm-3.4,6.957h-.024a7.107,7.107,0,0,1-2.18-.368,9.013,9.013,0,0,1-2.762-2.569,15.088,15.088,0,0,0-2.718-2.76,4.013,4.013,0,0,0-2.4-.864,3.224,3.224,0,0,0-.7.076,4.159,4.159,0,0,0-2.72,2.322,8.976,8.976,0,0,0-1.2,4.124,18.04,18.04,0,0,1-13.4-6.66c-3.366-3.919-6.015-9.4-8.82-16.366H9.87c.092.254.191.533.3.828a70.9,70.9,0,0,0,2.925,7.291c1.7,3.447,3.247,4.984,5.025,4.984a3.009,3.009,0,0,0,2.3-1.071c.882-1,1.394-2.648,1.565-5.041a24.548,24.548,0,0,0-.139-4.8,7.686,7.686,0,0,0-.725-2.548,36.178,36.178,0,0,1,5.8.265,19.827,19.827,0,0,1-.04,3.661c-.214,3.456-.435,7.022,1.424,8.69a3.088,3.088,0,0,0,.684.457l.946.286c.365-.111,2.48.945,6.483-5.931a50,50,0,0,0,3.12-6.4c1.492,0,6.573,0,7.17,0a42.129,42.129,0,0,1-4.16,6.178,43.955,43.955,0,0,0-2.707,3.817,4.147,4.147,0,0,0,.225,4.974l.018.023a32.418,32.418,0,0,0,2.488,2.524,18.862,18.862,0,0,1,3.968,4.876H41.2Zm0,0" transform="translate(0 -0.499)"/>
</svg>
