<svg xmlns="http://www.w3.org/2000/svg" viewBox="0 0 34.922 33.164">
  <defs>
    <style>
      .cls-1 {
        fill: #1e212a;
      }
    </style>
  </defs>
  <path id="search" class="cls-1" d="M13.74,42.009l.043-.041,9.186-8.721a14.057,14.057,0,0,0,7.763,2.293c7.547,0,13.714-5.855,13.714-13.02S38.279,9.5,30.732,9.5,17.018,15.355,17.018,22.52a12.712,12.712,0,0,0,2.415,7.37L10.29,38.61a2.266,2.266,0,0,0-.043,3.357A2.6,2.6,0,0,0,13.74,42.009ZM20.727,22.52a9.769,9.769,0,0,1,10.005-9.5,9.769,9.769,0,0,1,10.005,9.5,9.769,9.769,0,0,1-10.005,9.5A9.769,9.769,0,0,1,20.727,22.52Z" transform="translate(-9.524 -9.5)"/>
</svg>
