<svg xmlns="http://www.w3.org/2000/svg" viewBox="0 0 35 35">
  <defs>
    <style>
      .cls-1 {
        fill: #707070;
      }
    </style>
  </defs>
  <path id="_021-facebook" data-name="021-facebook" class="cls-1" d="M5.127,35H16.543V22.559h-4.1v-4.1h4.1V13.33A5.133,5.133,0,0,1,21.67,8.2H26.8v4.1H22.7a2.053,2.053,0,0,0-2.051,2.051v4.1h5.967l-.684,4.1H20.645V35h9.229A5.133,5.133,0,0,0,35,29.873V5.127A5.133,5.133,0,0,0,29.873,0H5.127A5.133,5.133,0,0,0,0,5.127V29.873A5.133,5.133,0,0,0,5.127,35ZM2.051,5.127A3.08,3.08,0,0,1,5.127,2.051H29.873a3.08,3.08,0,0,1,3.076,3.076V29.873a3.08,3.08,0,0,1-3.076,3.076H22.7v-8.34h4.97l1.367-8.2H22.7V14.355h6.152v-8.2H21.67a7.186,7.186,0,0,0-7.178,7.178v3.076h-4.1v8.2h4.1v8.34H5.127a3.08,3.08,0,0,1-3.076-3.076Zm0,0"/>
</svg>
